<svg width="34" height="33" viewBox="0 0 34 33" fill="none" xmlns="http://www.w3.org/2000/svg">
<path id="Vector" fill-rule="evenodd" clip-rule="evenodd" d="M17.0141 0C7.60573 0 0 7.56247 0 16.9183C0 24.3969 4.87325 30.7273 11.6337 32.9679C12.479 33.1363 12.7886 32.6039 12.7886 32.156C12.7886 31.7637 12.7607 30.4193 12.7607 29.0186C8.02782 30.0271 7.04224 27.0018 7.04224 27.0018C6.28163 25.0411 5.15465 24.5371 5.15465 24.5371C3.60557 23.5007 5.26749 23.5007 5.26749 23.5007C6.98582 23.6128 7.88747 25.2373 7.88747 25.2373C9.40834 27.8141 11.8591 27.086 12.845 26.6378C12.9857 25.5453 13.4367 24.7891 13.9156 24.369C10.1407 23.9768 6.16914 22.5203 6.16914 16.0218C6.16914 14.1731 6.84477 12.6606 7.91533 11.4843C7.74643 11.0642 7.15473 9.32727 8.08459 7.0025C8.08459 7.0025 9.52118 6.55425 12.7604 8.73912C14.1472 8.36879 15.5774 8.1804 17.0141 8.17881C18.4507 8.17881 19.9151 8.37509 21.2674 8.73912C24.507 6.55425 25.9435 7.0025 25.9435 7.0025C26.8734 9.32727 26.2814 11.0642 26.1124 11.4843C27.2112 12.6606 27.859 14.1731 27.859 16.0218C27.859 22.5203 23.8874 23.9486 20.0844 24.369C20.7043 24.9011 21.2392 25.9094 21.2392 27.5061C21.2392 29.7748 21.2113 31.5956 21.2113 32.1556C21.2113 32.6039 21.5213 33.1363 22.3662 32.9682C29.1267 30.727 33.9999 24.3969 33.9999 16.9183C34.0278 7.56247 26.3942 0 17.0141 0Z" fill="#24292F"/>
</svg>
