<svg width="127" height="201" viewBox="0 0 127 201" fill="none" xmlns="http://www.w3.org/2000/svg">
<path d="M64.7868 83.7319L64.4163 84.4343L65.2098 84.4648C97.646 85.7151 123.516 111.215 123.449 142.419V142.42C123.449 174.499 96.2331 200.5 62.6524 200.5C49.935 200.5 38.1639 196.812 28.4129 190.44L28.4054 190.435L28.3978 190.431C24.3711 187.999 20.6781 185.006 17.3186 181.449C13.7542 177.512 10.7299 173.203 8.31089 168.459L8.31041 168.458C6.96311 165.83 5.75335 163.082 4.81373 160.276L4.81139 160.269C1.91771 152.017 0.5 142.752 0.5 132.404C0.5 107.838 9.06476 84.3847 26.2305 62.0344C43.3402 39.7572 69.2673 19.3242 104.045 0.623535L126.263 24.6314C108.738 38.2488 93.611 51.1878 80.8843 63.4484C73.4681 70.5907 68.1413 77.3722 64.7868 83.7319Z" stroke="#FF8262"/>
</svg>
