<svg width="31" height="24" viewBox="0 0 31 24" fill="none" xmlns="http://www.w3.org/2000/svg">
<path d="M7 24C4.88889 24 3.19444 23.2852 1.91667 21.8557C0.638889 20.3711 0 18.3918 0 15.9175C0 12.9485 0.972222 10.1168 2.91667 7.42268C4.86111 4.72852 7.80556 2.2543 11.75 0L14.3333 2.96907C12.3333 4.61856 10.6111 6.18557 9.16667 7.6701C7.77778 9.09966 7.02778 10.3918 6.91667 11.5464L7.25 11.7938C7.63889 11.4639 8.25 11.299 9.08333 11.299C10.3611 11.299 11.4444 11.8488 12.3333 12.9485C13.2222 14.0481 13.6667 15.5326 13.6667 17.4021C13.6667 19.3265 13.0556 20.921 11.8333 22.1856C10.6111 23.3952 9 24 7 24ZM23.6667 24C21.5556 24 19.8611 23.2852 18.5833 21.8557C17.3056 20.3711 16.6667 18.3918 16.6667 15.9175C16.6667 12.9485 17.6389 10.1168 19.5833 7.42268C21.5278 4.72852 24.4722 2.2543 28.4167 0L31 2.96907C29 4.61856 27.2778 6.18557 25.8333 7.6701C24.4444 9.09966 23.6944 10.3918 23.5833 11.5464L23.9167 11.7938C24.3056 11.4639 24.9167 11.299 25.75 11.299C27.0278 11.299 28.1111 11.8488 29 12.9485C29.8889 14.0481 30.3333 15.5326 30.3333 17.4021C30.3333 19.3265 29.7222 20.921 28.5 22.1856C27.2778 23.3952 25.6667 24 23.6667 24Z" fill="#AEBFFE"/>
</svg>
