<svg width="34" height="27" viewBox="0 0 34 27" fill="none" xmlns="http://www.w3.org/2000/svg">
<path d="M7.67516 26.79C5.39516 26.79 3.56516 26.01 2.18516 24.45C0.805156 22.83 0.115156 20.67 0.115156 17.97C0.115156 14.73 1.16516 11.64 3.26516 8.7C5.36516 5.76 8.54516 3.06 12.8052 0.599995L15.5952 3.84C13.4352 5.64 11.5752 7.35 10.0152 8.97C8.51516 10.53 7.70516 11.94 7.58516 13.2L7.94516 13.47C8.36516 13.11 9.02516 12.93 9.92516 12.93C11.3052 12.93 12.4752 13.53 13.4352 14.73C14.3952 15.93 14.8752 17.55 14.8752 19.59C14.8752 21.69 14.2152 23.43 12.8952 24.81C11.5752 26.13 9.83516 26.79 7.67516 26.79ZM25.6752 26.79C23.3952 26.79 21.5652 26.01 20.1852 24.45C18.8052 22.83 18.1152 20.67 18.1152 17.97C18.1152 14.73 19.1652 11.64 21.2652 8.7C23.3652 5.76 26.5452 3.06 30.8052 0.599995L33.5952 3.84C31.4352 5.64 29.5752 7.35 28.0152 8.97C26.5152 10.53 25.7052 11.94 25.5852 13.2L25.9452 13.47C26.3652 13.11 27.0252 12.93 27.9252 12.93C29.3052 12.93 30.4752 13.53 31.4352 14.73C32.3952 15.93 32.8752 17.55 32.8752 19.59C32.8752 21.69 32.2152 23.43 30.8952 24.81C29.5752 26.13 27.8352 26.79 25.6752 26.79Z" fill="#FF8262"/>
</svg>
