<svg width="138" height="112" viewBox="0 0 138 112" fill="none" xmlns="http://www.w3.org/2000/svg">
<g id="Group 806">
<path id="Vector" d="M105.744 46.3764L105.406 47.0645L106.172 47.0962C122.723 47.7819 135.963 61.7727 135.929 78.9416V78.9426C135.929 96.5945 122 110.858 104.866 110.858C98.3729 110.858 92.3626 108.835 87.3815 105.337L87.374 105.332L87.3663 105.327C85.3134 103.995 83.4287 102.354 81.7123 100.401C79.8897 98.2377 78.3433 95.8699 77.1063 93.2629L77.1059 93.262C76.4156 91.8148 75.7967 90.3036 75.3164 88.7624L75.3144 88.7561C73.8324 84.2145 73.1045 79.1097 73.1045 73.4005C73.1045 59.8534 77.4987 46.9175 86.3138 34.5834C95.0695 22.3326 108.33 11.082 126.125 0.774539L137.29 13.7392C128.332 21.2272 120.592 28.346 114.073 35.0956C110.242 39.0599 107.484 42.8314 105.744 46.3764Z" stroke="#FF8262"/>
<path id="Vector_2" d="M33.1392 46.3764L32.8014 47.0645L33.5674 47.0962C50.1186 47.7819 63.3587 61.7727 63.3243 78.9416V78.9426C63.3243 96.5945 49.3954 110.858 32.2613 110.858C25.7684 110.858 19.7581 108.835 14.777 105.337L14.7695 105.332L14.7618 105.327C12.709 103.995 10.8242 102.354 9.10785 100.401C7.28517 98.2377 5.73884 95.8699 4.50185 93.2629L4.50141 93.262C3.8111 91.8148 3.19221 90.3036 2.71195 88.7624L2.70988 88.7561C1.2279 84.2145 0.5 79.1097 0.5 73.4005C0.5 59.8534 4.89423 46.9175 13.7093 34.5834C22.465 22.3326 35.7252 11.082 53.5206 0.774539L64.6853 13.7392C55.7275 21.2272 47.9879 28.346 41.4683 35.0956C37.6378 39.0599 34.8792 42.8314 33.1392 46.3764Z" stroke="#FF8262"/>
</g>
</svg>
