<?xml version="1.0" encoding="utf-8"?>
<!-- Generator: Adobe Illustrator 25.0.0, SVG Export Plug-In . SVG Version: 6.00 Build 0)  -->
<svg version="1.1" id="Layer_1" xmlns="http://www.w3.org/2000/svg" xmlns:xlink="http://www.w3.org/1999/xlink" x="0px" y="0px"
	 viewBox="0 0 406.3 164.1" style="enable-background:new 0 0 406.3 164.1;" xml:space="preserve">
<style type="text/css">
	.st0{fill:#020203;}
</style>
<path class="st0" d="M4,80.1h45.8v-11H15.9V12.5H4V80.1z"/>
<path class="st0" d="M74,81c16,0,24.7-10,24.7-28.1c0-18.2-8.8-28.1-24.7-28.1c-16,0-24.7,9.9-24.7,28.1C49.2,71,58,81,74,81z
	 M74,70c-8.8,0-12.8-5.5-12.8-17S65.3,36,74,36c8.8,0,12.8,5.5,12.8,17C86.8,64.4,82.7,70,74,70z"/>
<path class="st0" d="M126.2,81c10.5,0,16.9-4.1,21.8-13.6l-10.1-5.3c-2.6,5.6-6,7.9-11.7,7.9c-8.8,0-12.8-5.4-12.8-17
	s4.1-17,12.8-17c5.7,0,9.1,2.3,11.7,7.9l10.1-5.3c-4.9-9.5-11.3-13.6-21.8-13.6c-16.1,0-24.7,9.8-24.7,28.1S110.1,81,126.2,81z"/>
<path class="st0" d="M200.4,70.3c-1.7,0-2.9-0.8-2.9-3V25.8h-10.8v6.1c-3.4-4.8-8.7-7-15.2-7c-13.7,0-22.5,9.9-22.5,28.1
	c0,18.1,8.8,28.1,22.5,28.1c6.5,0,11.7-2.2,15.1-6.9c1.5,5.2,5.3,6.9,10.8,6.9c2.1,0,4.1-0.3,5.8-1V69.9
	C202.2,70.2,201.4,70.3,200.4,70.3z M173.4,70c-8.4,0-12.5-5.5-12.5-17s4.1-17,12.5-17s12.4,5.2,12.4,13.9v6.3
	C185.8,64.7,181.8,70,173.4,70z"/>
<path class="st0" d="M229.6,70.3c-5.8,0-8.4-3.8-8.4-9.8v-1.7c10.6-9.2,24.9-22.2,24.9-36.7c0-12.7-6.7-20.1-18.4-20.1
	C217.4,2,210,8,210,18.4v36.3l-9.3,7.9l6,8.2l4.1-3.2c1.9,8.4,7.8,13.5,18.3,13.5c8.8,0,13.3-4.2,15.8-8.1l-7.7-6.8
	C235.7,68.2,233.8,70.3,229.6,70.3z M227.8,12.7c4.6,0,6.9,3.1,6.9,9.2c0,8.9-6.4,16.3-13.4,22.9V19.9
	C221.2,15.2,224.1,12.7,227.8,12.7z"/>
<path class="st0" d="M300.5,43.1h-24.7V54h13.3v5.3c0,4.5-5.4,10.5-14.6,10.5c-10.2,0-16.8-7.9-16.8-23.5c0-15.8,6.4-23.7,18.4-23.7
	c7.2,0,11.2,3,14.1,10.1l11.1-5.5c-4.8-10.7-12.5-15.7-25.1-15.7c-19.6,0-30.4,12.1-30.4,34.7c0,22.7,10.7,34.7,28.4,34.7
	c7.5,0,12.4-2.8,15.5-6.5l0.7,5.5h10.2V43.1H300.5z"/>
<path class="st0" d="M329.1,81c16,0,24.7-10,24.7-28.1c0-18.2-8.8-28.1-24.7-28.1c-16,0-24.7,9.9-24.7,28.1
	C304.3,71,313.1,81,329.1,81z M329.1,70c-8.8,0-12.8-5.5-12.8-17s4.1-17,12.8-17c8.8,0,12.8,5.5,12.8,17
	C341.9,64.4,337.8,70,329.1,70z"/>
<path class="st0" d="M368.3,80.1h15.2l12.6-29.6c4.9-11.3,4.9-18.8,3.3-24.7H387c1.8,5.6,2.5,12.6-2.3,23.8l-8.5,20.2h-0.6l-13.7-44
	h-12.4L368.3,80.1z"/>
<g>
	<path class="st0" d="M368.4,135.4c-1.4,0-2.3-0.6-2.3-2.5v-29.6h-5.4v5.4c-2.3-4.1-6.4-5.9-11.3-5.9c-9.3,0-15.2,6.5-15.2,18.9
		c0,12.4,6,18.9,15.2,18.9c4.8,0,8.7-1.7,11-5.4c0.6,4.2,3.1,5.4,6.6,5.4c1.2,0,2.5-0.2,3.5-0.6v-5
		C369.6,135.4,369,135.4,368.4,135.4z M360.1,124.1c0,7.2-3.9,11.1-10,11.1c-6.6,0-10.2-4.4-10.2-13.6s3.7-13.6,10.2-13.6
		c6.2,0,10,3.9,10,11.1V124.1z"/>
	<path class="st0" d="M317.5,102.7c-5.2,0-9.5,1.9-11.7,6.3v-5.7h-5.4v51.4h5.8v-19.5c2.5,3.7,6.4,5.4,11.3,5.4
		c9.1,0,14.8-6.5,14.8-18.9C332,109.1,326.4,102.7,317.5,102.7z M316.1,135.2c-6.2,0-10-3.5-10-11.1v-4.8c0-7.8,3.9-11.1,10-11.1
		c6.6,0,10.2,4.4,10.2,13.6C326.1,131,322.7,135.2,316.1,135.2z"/>
	<path class="st0" d="M295,135.4c-1.4,0-2.3-0.6-2.3-2.5v-29.6h-6v21.8c0,6.7-3.5,10.1-9.1,10.1c-5.4,0-8.9-3.3-8.9-9.6v-22.4h-5.9
		v22.2c0,10.1,4.6,15.2,12.8,15.2c4.8,0,8.7-1.7,10.9-5.2c0.6,4.1,3.1,5.2,6.6,5.2c1.2,0,2.5-0.2,3.5-0.6v-5
		C296.3,135.4,295.6,135.4,295,135.4z"/>
	<path class="st0" d="M252.3,102.7c-4.4,0-8.1,1.7-10.4,5.4v-4.8h-5.4V140h6v-22.2c0-6.7,3.9-9.7,8.7-9.7c2.5,0,4.6,1,6.2,2.7
		l3.7-4.2C258.8,104.2,256,102.7,252.3,102.7z"/>
	<path class="st0" d="M212.6,94.2h-15.9v45.9h15.9c13.2,0,20.2-8,20.2-23C232.9,102.3,225.8,94.2,212.6,94.2z M212.6,134.8h-10V99.6
		h10.2c9.5,0,14.2,6.1,14.2,17.6C226.9,128.6,222.1,134.8,212.6,134.8z"/>
	<path class="st0" d="M379,132.7c0,1.9,1,2.5,2.3,2.5c0.6,0,1.2,0,1.9-0.4v5c-1,0.4-2.3,0.6-3.5,0.6c-3.5,0-5.6-1.4-6.2-5.5v-26.4
		V94.2h5.4V132.7z"/>
</g>
</svg>
