<?xml version="1.0" standalone="no"?>
<!DOCTYPE svg PUBLIC "-//W3C//DTD SVG 20010904//EN"
 "http://www.w3.org/TR/2001/REC-SVG-20010904/DTD/svg10.dtd">
<svg version="1.0" xmlns="http://www.w3.org/2000/svg"
 width="700.000000pt" height="700.000000pt" viewBox="0 0 700.000000 700.000000"
 preserveAspectRatio="xMidYMid meet">
<metadata>
Created by potrace 1.14, written by Peter Selinger 2001-2017
</metadata>
<g transform="translate(0.000000,700.000000) scale(0.100000,-0.100000)"
fill="#000000" stroke="none">
<path d="M3415 6018 c-260 -29 -484 -135 -647 -306 -119 -124 -193 -266 -241
-461 -21 -85 -21 -101 -24 -1338 l-4 -1252 -274 -248 c-150 -136 -274 -252
-274 -256 -1 -9 348 -527 355 -527 3 0 58 45 121 100 63 56 117 100 118 98 1
-2 15 -46 30 -98 51 -181 133 -328 249 -449 187 -193 411 -286 741 -307 334
-20 627 77 841 279 66 61 184 213 184 234 0 8 -239 235 -431 411 l-27 24 -37
-56 c-107 -161 -289 -237 -497 -208 -247 35 -386 206 -418 512 -5 56 -10 128
-10 159 l0 57 218 207 c835 790 1215 1387 1283 2012 20 185 -3 446 -57 645
-29 109 -102 269 -165 361 -205 305 -593 457 -1034 407z m251 -679 c75 -14
144 -51 194 -105 49 -53 74 -102 102 -201 20 -69 23 -100 23 -273 0 -171 -3
-207 -24 -290 -88 -353 -290 -677 -669 -1070 l-101 -105 0 850 c-1 907 -1 896
49 995 37 74 85 124 149 159 92 49 169 60 277 40z"/>
</g>
</svg>
