<svg width="39" height="50" viewBox="0 0 39 50" fill="none" xmlns="http://www.w3.org/2000/svg">
<path id="Vector" d="M27.4783 10.5091C24.0021 7.04189 20.6962 3.72701 19.7107 0C18.7431 3.72701 15.4103 7.04189 11.9341 10.5091C6.72887 15.7144 0.824792 21.6095 0.824792 30.4611C0.770024 32.9753 1.21791 35.475 2.14219 37.8138C3.06646 40.1525 4.4485 42.2831 6.20722 44.0806C7.96595 45.878 10.0659 47.3061 12.384 48.2811C14.702 49.2561 17.1915 49.7583 19.7062 49.7583C22.221 49.7583 24.7104 49.2561 27.0284 48.2811C29.3465 47.3061 31.4465 45.878 33.2052 44.0806C34.9639 42.2831 36.346 40.1525 37.2702 37.8138C38.1945 35.475 38.6424 32.9753 38.5876 30.4611C38.5876 21.6095 32.6835 15.7144 27.4783 10.5091ZM10.5365 32.1813C9.95926 32.9072 9.46353 33.6944 9.05825 34.5286C9.02814 34.5947 8.9835 34.6532 8.92766 34.6998C8.87183 34.7463 8.80622 34.7797 8.73572 34.7973H8.57446C8.15338 34.7973 7.67854 33.9731 7.67854 33.9731C7.55312 33.776 7.43665 33.5699 7.32018 33.3549L7.23955 33.1847C6.14653 30.6851 7.0962 27.1283 7.0962 27.1283C7.56434 25.3948 8.32812 23.7551 9.35391 22.2814C9.98061 21.3456 10.6627 20.4481 11.3966 19.5937L12.2925 20.4896L16.5212 24.8079C16.6006 24.8966 16.6444 25.0114 16.6444 25.1304C16.6444 25.2494 16.6006 25.3643 16.5212 25.453L12.1044 30.3536L10.5365 32.1813ZM19.9257 44.5539C18.6692 44.5465 17.4414 44.1769 16.3897 43.4893C15.338 42.8017 14.5069 41.8253 13.9963 40.6772C13.4856 39.5291 13.3169 38.258 13.5105 37.0165C13.7041 35.7749 14.2518 34.6156 15.0878 33.6775C16.4675 32.0379 18.1518 30.4253 19.9795 28.302C22.1476 30.6134 23.5631 32.1992 24.9518 33.9373C25.0606 34.0713 25.1566 34.2153 25.2385 34.3673C25.998 35.4482 26.4048 36.7374 26.4032 38.0585C26.4055 38.9106 26.2397 39.7549 25.9153 40.5428C25.5908 41.3308 25.114 42.0469 24.5123 42.6503C23.9106 43.2537 23.1957 43.7324 22.4087 44.0591C21.6216 44.3857 20.7779 44.5539 19.9257 44.5539ZM32.1818 34.1702C32.1402 34.3042 32.0619 34.4238 31.9558 34.5156C31.8497 34.6074 31.7201 34.6678 31.5816 34.6898H31.4561C31.1991 34.6065 30.9821 34.431 30.8469 34.1971C29.7148 32.4989 28.4314 30.9067 27.0124 29.4398L25.2833 27.6479L19.5405 21.6901C18.3345 20.5727 17.1862 19.3945 16.1001 18.1602C16.0734 18.1134 16.0435 18.0685 16.0106 18.0258C15.8152 17.7512 15.6612 17.4493 15.5536 17.1299C15.5536 17.0761 15.5536 17.0134 15.5536 16.9597C15.4741 16.4726 15.514 15.9735 15.6701 15.5053C15.8262 15.0371 16.0937 14.6138 16.4496 14.2719C17.5605 13.161 18.6804 12.0411 19.7376 10.8764C20.9023 12.1665 22.1476 13.4029 23.375 14.6303C25.879 16.962 28.1448 19.537 30.1391 22.3172C31.8228 24.7013 32.7387 27.5426 32.7642 30.4611C32.7501 31.7191 32.5539 32.9684 32.1818 34.1702Z" fill="black"/>
</svg>
