<svg width="51" height="49" viewBox="0 0 51 49" fill="none" xmlns="http://www.w3.org/2000/svg">
<path id="Vector" fill-rule="evenodd" clip-rule="evenodd" d="M25.048 0C11.1971 0 0 11.0537 0 24.7286C0 35.6597 7.17438 44.9126 17.1271 48.1875C18.3715 48.4337 18.8273 47.6555 18.8273 47.0008C18.8273 46.4275 18.7863 44.4624 18.7863 42.415C11.8185 43.8892 10.3675 39.4672 10.3675 39.4672C9.24778 36.6013 7.58865 35.8647 7.58865 35.8647C5.30811 34.3498 7.75477 34.3498 7.75477 34.3498C10.2845 34.5136 11.6119 36.8882 11.6119 36.8882C13.8509 40.6545 17.4589 39.5903 18.9104 38.9351C19.1175 37.3383 19.7815 36.233 20.4864 35.619C14.9291 35.0457 9.08218 32.9169 9.08218 23.4182C9.08218 20.7161 10.0768 18.5054 11.6529 16.786C11.4043 16.172 10.5332 13.6332 11.9021 10.2352C11.9021 10.2352 14.017 9.58003 18.7858 12.7735C20.8274 12.2322 22.933 11.9569 25.048 11.9546C27.163 11.9546 29.3189 12.2415 31.3098 12.7735C36.079 9.58003 38.194 10.2352 38.194 10.2352C39.5629 13.6332 38.6913 16.172 38.4426 16.786C40.0602 18.5054 41.0139 20.7161 41.0139 23.4182C41.0139 32.9169 35.1669 35.0045 29.5681 35.619C30.4807 36.3968 31.2682 37.8704 31.2682 40.2043C31.2682 43.5204 31.2272 46.1818 31.2272 47.0003C31.2272 47.6555 31.6835 48.4337 32.9274 48.188C42.8801 44.9121 50.0545 35.6597 50.0545 24.7286C50.0955 11.0537 38.8574 0 25.048 0Z" fill="black"/>
</svg>
