<?xml version="1.0" encoding="utf-8"?>
<!-- Generator: Adobe Illustrator 25.0.0, SVG Export Plug-In . SVG Version: 6.00 Build 0)  -->
<svg version="1.1" id="Layer_1" xmlns="http://www.w3.org/2000/svg" xmlns:xlink="http://www.w3.org/1999/xlink" x="0px" y="0px"
	 viewBox="0 0 49 49" style="enable-background:new 0 0 49 49;" xml:space="preserve">
<path d="M24.5,0.1C11,0.1,0.1,11,0.1,24.5C0.1,38,11,48.9,24.5,48.9C38,48.9,48.9,38,48.9,24.5C48.9,11,38,0.1,24.5,0.1z M19.4,26.4
	c0,2,0,4.1,0,6.2c0,0.8-0.3,1.1-1.1,1.1c-1-0.1-2,0-3.1,0c-0.6,0-0.9-0.2-0.9-0.8c0-4.2,0-8.5,0-12.7c0-0.6,0.3-0.8,0.9-0.8
	c1.1,0,2.2,0,3.3,0c0.7,0,0.9,0.2,0.9,0.9C19.4,22.2,19.4,24.3,19.4,26.4z M16.9,17.5c-1.6,0-2.8-1.1-2.8-2.6
	c0.1-1.4,1.2-2.4,2.8-2.4c1.7,0,2.7,1,2.7,2.5C19.6,16.5,18.5,17.5,16.9,17.5z M35.4,33.5c-1.1,0-2.1,0-3.2,0
	c-0.7,0-0.9-0.2-0.9-0.9c0-1.9,0-3.9,0-5.8c0-0.6-0.1-1.2-0.1-1.7c-0.2-1.7-0.9-2.3-2.4-2.2c-1.2,0.1-2.2,1.1-2.3,2.6
	c0,2.3-0.1,4.6,0,7c0,1-0.3,1.2-1.2,1.1c-1-0.1-2,0-3,0c-0.5,0-0.8-0.1-0.7-0.7c0-4.5,0-9,0-13.6c1.7,0,3.2,0,4.8,0
	c0,0.5,0.1,0.9,0.1,1.5c1.3-1.6,3-2.2,4.9-1.9c2.9,0.5,4.5,2.5,4.6,5.6c0.1,2.7,0,5.5,0,8.2C36.2,33.4,36,33.6,35.4,33.5z"/>
</svg>
