<svg width="112" height="88" viewBox="0 0 112 88" fill="none" xmlns="http://www.w3.org/2000/svg">
<g id="ODC-logo-blk 2">
<g id="Group">
<path id="Vector" d="M103.803 76.0982C105.012 76.0982 105.957 76.8774 106.22 78.0722H101.334C101.649 76.8774 102.595 76.0982 103.803 76.0982ZM108.846 78.9554C108.846 76.0982 106.693 73.9683 103.803 73.9683C100.914 73.9683 98.7076 76.0982 98.7076 78.9034C98.7076 81.7606 100.966 83.8904 104.013 83.8904C105.799 83.8904 107.375 83.1631 108.374 82.0203L106.745 80.6177C106.22 81.2411 105.274 81.8125 104.118 81.8125C102.753 81.8125 101.702 81.0333 101.387 79.8385H108.794C108.846 79.5787 108.846 79.2151 108.846 78.9554ZM96.3436 74.2281L93.8745 80.6696L91.353 74.2281H88.5687L92.5612 83.6826H95.0828L99.0753 74.2281H96.3436ZM85.4693 83.6826H87.8858V74.2281H85.4693V83.6826ZM86.6775 72.8255C87.5181 72.8255 88.201 72.1502 88.201 71.319C88.201 70.4878 87.5181 69.8125 86.6775 69.8125C85.837 69.8125 85.1541 70.4359 85.1541 71.319C85.1541 72.2021 85.7845 72.8255 86.6775 72.8255ZM84.0509 76.4099V74.1761H81.4768V71.7865H79.0603V74.1761H77.5368V76.4099H79.0603V80.7216C79.0603 82.5917 80.1109 83.8904 82.2648 83.8904C83.0002 83.8904 83.5256 83.7865 84.0509 83.4748V81.2411C83.6832 81.3969 83.2629 81.5528 82.7901 81.5528C81.9496 81.5528 81.4768 81.1372 81.4768 80.358V76.4099H84.0509ZM71.338 81.5528C69.8145 81.5528 68.7113 80.4099 68.7113 78.9554C68.7113 77.4489 69.8145 76.3579 71.338 76.3579C72.8614 76.3579 73.9646 77.5008 73.9646 78.9554C74.0171 80.4618 72.8614 81.5528 71.338 81.5528ZM74.0171 74.2281V75.3709C73.2291 74.5398 72.1785 74.0203 70.9177 74.0203C68.2385 74.0203 66.2423 76.1502 66.2423 78.9554C66.2423 81.7605 68.2385 83.8904 70.9177 83.8904C72.1785 83.8904 73.2817 83.3709 74.0171 82.5398V83.6826H76.4336V74.2281H74.0171ZM65.5068 74.0722C64.4036 74.0722 63.458 74.5917 62.7226 75.4229V74.1761H60.3061V83.6307H62.7226V79.1631C62.7226 77.5528 63.7207 76.5138 65.5068 76.5138H65.9271V74.0722H65.5068ZM54.0021 76.0982C55.2104 76.0982 56.156 76.8774 56.4186 78.0722H51.5331C51.8483 76.8774 52.7939 76.0982 54.0021 76.0982ZM59.0453 78.9554C59.0453 76.0982 56.8914 73.9683 54.0021 73.9683C51.1128 73.9683 48.9064 76.0982 48.9064 78.9034C48.9064 81.7606 51.1654 83.8904 54.2123 83.8904C55.9984 83.8904 57.5744 83.1631 58.5725 82.0203L56.944 80.6177C56.4186 81.2411 55.473 81.8125 54.3173 81.8125C52.9515 81.8125 51.9008 81.0333 51.5856 79.8385H58.9927C58.9927 79.5787 59.0453 79.2151 59.0453 78.9554ZM43.0228 81.5528C41.4993 81.5528 40.3961 80.4099 40.3961 78.9554C40.3961 77.4489 41.4993 76.3579 43.0228 76.3579C44.5462 76.3579 45.6494 77.5008 45.6494 78.9554C45.6494 80.4618 44.5462 81.5528 43.0228 81.5528ZM43.4956 74.0203C42.2348 74.0203 41.1316 74.5398 40.3961 75.3709V74.2281H37.9796V87.2151H40.3961V82.5398C41.1841 83.3709 42.2348 83.8904 43.4956 83.8904C46.1747 83.8904 48.171 81.7605 48.171 78.9554C48.171 76.1502 46.1747 74.0203 43.4956 74.0203ZM31.5181 81.5528C29.9946 81.5528 28.8914 80.4099 28.8914 78.9554C28.8914 77.4489 29.9946 76.3579 31.5181 76.3579C33.0415 76.3579 34.1447 77.5008 34.1447 78.9554C34.1447 80.4618 33.0415 81.5528 31.5181 81.5528ZM31.5181 83.8904C34.4599 83.8904 36.6663 81.7605 36.6663 78.9554C36.6663 76.1502 34.4599 74.0203 31.5181 74.0203C28.5762 74.0203 26.3699 76.1502 26.3699 78.9554C26.3699 81.7605 28.6288 83.8904 31.5181 83.8904ZM20.5912 81.5528C19.0678 81.5528 17.9646 80.4099 17.9646 78.9554C17.9646 77.4489 19.0678 76.3579 20.5912 76.3579C22.1147 76.3579 23.2179 77.5008 23.2179 78.9554C23.2179 80.4618 22.1147 81.5528 20.5912 81.5528ZM20.5912 83.8904C23.5331 83.8904 25.7395 81.7605 25.7395 78.9554C25.7395 76.1502 23.5331 74.0203 20.5912 74.0203C17.6494 74.0203 15.443 76.1502 15.443 78.9554C15.443 81.7605 17.6494 83.8904 20.5912 83.8904ZM10.7676 83.8904C12.7113 83.8904 14.3398 82.9554 15.1804 81.5528L13.079 80.306C12.6588 81.0852 11.8183 81.6047 10.7676 81.6047C9.24415 81.6047 8.14096 80.4618 8.14096 79.0073C8.14096 77.5008 9.24415 76.4099 10.7676 76.4099C11.7657 76.4099 12.6063 76.9294 13.079 77.7086L15.1804 76.4619C14.3398 75.0073 12.7113 74.1242 10.7676 74.1242C7.82576 74.1242 5.61938 76.2541 5.61938 79.0593C5.61938 81.7606 7.82576 83.8904 10.7676 83.8904Z" fill="#1D1D1B"/>
<path id="Vector_2" d="M97.8146 8.56568C95.1355 8.56568 92.9291 9.50075 91.3006 11.3189V9.03321H86.0473V29.3449H91.3006V18.228C91.3006 15.4228 93.2443 13.6046 96.081 13.6046C98.8128 13.6046 100.599 15.3709 100.599 18.1241V29.3449H105.852V16.4618C105.8 11.6826 102.648 8.56568 97.8146 8.56568ZM73.597 13.1371C76.1186 13.1371 78.1674 14.7475 78.8503 17.293H68.3962C69.0266 14.7994 71.0229 13.1371 73.597 13.1371ZM84.4188 19.215C84.4188 13.0852 79.7959 8.56568 73.6495 8.56568C67.4507 8.56568 62.7227 13.0852 62.7227 19.1111C62.7227 25.1891 67.6082 29.8124 74.1223 29.8124C78.0098 29.8124 81.2668 28.254 83.4206 25.7605L79.9009 22.7475C78.7977 24.0982 76.749 25.241 74.2799 25.241C71.2855 25.241 69.1317 23.6306 68.3962 21.0852H84.2612C84.3662 20.5137 84.4188 19.7865 84.4188 19.215ZM50.2724 24.8254C47.0679 24.8254 44.6514 22.3839 44.6514 19.215C44.6514 16.0462 47.0679 13.6046 50.2724 13.6046C53.5294 13.6046 55.8934 16.0462 55.8934 19.215C55.946 22.3839 53.5294 24.8254 50.2724 24.8254ZM51.3231 8.56568C48.5914 8.56568 46.2799 9.65659 44.6514 11.4748V9.03321H39.3981V36.8774H44.6514V26.9033C46.2799 28.7215 48.5914 29.8124 51.3231 29.8124C57.0491 29.8124 61.3043 25.241 61.3043 19.215C61.3043 13.1891 57.0491 8.56568 51.3231 8.56568ZM22.4825 24.5137C17.4394 24.5137 13.552 20.6696 13.552 15.5787C13.552 10.4878 17.4394 6.6436 22.4825 6.6436C27.5257 6.6436 31.4131 10.4878 31.4131 15.5787C31.4131 20.6696 27.5782 24.5137 22.4825 24.5137ZM22.4825 29.8124C30.8353 29.8124 37.1392 23.6826 37.1392 15.6306C37.1392 7.57867 30.8353 1.39685 22.4825 1.39685C14.1298 1.39685 7.87842 7.52672 7.87842 15.6306C7.87842 23.7345 14.1824 29.8124 22.4825 29.8124Z" fill="#1D1D1B"/>
<path id="Vector_3" d="M106.745 62.9033H111.998V34.2799H106.745V62.9033ZM92.8765 58.3838C89.672 58.3838 87.2555 55.9422 87.2555 52.7734C87.2555 49.6045 89.672 47.163 92.8765 47.163C96.1336 47.163 98.5501 49.6045 98.5501 52.7734C98.5501 55.9422 96.1336 58.3838 92.8765 58.3838ZM98.5501 42.6435V45.0851C96.9215 43.3188 94.6101 42.176 91.8784 42.176C86.1523 42.176 81.8446 46.7474 81.8446 52.7734C81.8446 58.7994 86.1523 63.3708 91.8784 63.3708C94.6101 63.3708 96.9215 62.2799 98.5501 60.4617V62.9033H103.803V42.6435H98.5501ZM80.7414 47.3708V42.6435H75.2255V37.5007H69.9722V42.6435H66.7152V47.3708H69.9722V56.6175C69.9722 60.6695 72.1786 63.3708 76.9065 63.3708C78.43 63.3708 79.5857 63.111 80.7414 62.4877V57.6565C79.9534 58.0201 79.1129 58.3318 78.0623 58.3318C76.2236 58.3318 75.2255 57.4487 75.2255 55.7344V47.3708H80.7414ZM59.8334 62.9033H65.0867V42.6435H59.8334V62.9033ZM62.46 39.6305C64.2987 39.6305 65.7696 38.2279 65.7696 36.4097C65.7696 34.5916 64.2987 33.189 62.46 33.189C60.6214 33.189 59.1504 34.5916 59.1504 36.4097C59.1504 38.2279 60.6214 39.6305 62.46 39.6305ZM47.3306 47.0591C49.7471 47.0591 51.5857 48.7734 51.5857 51.0591C51.5857 53.3448 49.7471 55.0591 47.3306 55.0591C44.8615 55.0591 43.0754 53.3448 43.0754 51.0591C43.0229 48.7734 44.8615 47.0591 47.3306 47.0591ZM51.7433 62.9033H45.0716C43.7583 62.9033 42.9178 62.176 42.9178 61.189C42.9178 60.5136 43.3381 59.8383 43.9685 59.4227C45.0191 59.7344 46.1223 59.9422 47.3306 59.9422C52.794 59.9422 56.9966 56.0981 56.9966 51.0071C56.9966 49.0331 56.3662 47.163 55.2105 45.7604C55.4206 44.8253 56.2611 44.3058 57.3118 44.3058H58.7827V39.5266H57.0491C54.37 39.5266 52.3737 40.8773 51.7958 43.0591C50.4825 42.4877 48.9591 42.124 47.3306 42.124C41.8146 42.124 37.717 45.9682 37.717 51.0591C37.717 53.6045 38.7152 55.7864 40.4488 57.3968C38.7677 58.4357 37.6645 60.4097 37.6645 62.4877C37.6645 65.7084 40.1861 67.8903 44.021 67.8903H50.7452C52.5838 67.8903 53.8446 68.8253 54.0022 70.3318L59.4131 68.8773C58.6776 65.137 55.7883 62.9033 51.7433 62.9033ZM30.0998 62.9033H35.3531V42.6435H30.0998V62.9033ZM32.7264 39.6305C34.5651 39.6305 36.036 38.2279 36.036 36.4097C36.036 34.5916 34.5651 33.189 32.7264 33.189C30.8878 33.189 29.4169 34.5916 29.4169 36.4097C29.4169 38.2279 30.8352 39.6305 32.7264 39.6305ZM13.4994 57.7604H8.29866V40.6175H13.4994C18.385 40.6175 22.0623 44.2539 22.0623 49.189C22.0623 54.124 18.4375 57.7604 13.4994 57.7604ZM13.657 35.4747H2.78271V62.9033H13.657C21.7471 62.9033 27.8409 57.0331 27.8409 49.189C27.8409 41.3448 21.7471 35.4747 13.657 35.4747Z" fill="#1D1D1B"/>
</g>
</g>
</svg>
