<?xml version="1.0" encoding="utf-8"?>
<!-- Generator: Adobe Illustrator 25.0.0, SVG Export Plug-In . SVG Version: 6.00 Build 0)  -->
<svg version="1.1" id="Layer_1" xmlns="http://www.w3.org/2000/svg" xmlns:xlink="http://www.w3.org/1999/xlink" x="0px" y="0px"
	 viewBox="0 0 49 49" style="enable-background:new 0 0 49 49;" xml:space="preserve">
<g>
	<polygon points="24.7,22.2 18.9,13.7 15.8,13.7 23,24.2 23.9,25.6 30.1,34.6 33.2,34.6 25.6,23.5 	"/>
	<path d="M24.5,0.1C11,0.1,0.1,11,0.1,24.5C0.1,38,11,48.9,24.5,48.9C38,48.9,48.9,38,48.9,24.5C48.9,11,38,0.1,24.5,0.1z
		 M29.2,36.1l-6.3-9.3L15,36.1h-2l9-10.7l-9-13.3h6.8l5.9,8.8l7.4-8.8h2l-8.6,10.2L36,36.1H29.2z"/>
</g>
</svg>
