<?xml version="1.0" encoding="utf-8"?>
<!-- Generator: Adobe Illustrator 25.0.0, SVG Export Plug-In . SVG Version: 6.00 Build 0)  -->
<svg version="1.1" id="Layer_1" xmlns="http://www.w3.org/2000/svg" xmlns:xlink="http://www.w3.org/1999/xlink" x="0px" y="0px"
	 viewBox="0 0 50 49" style="enable-background:new 0 0 50 49;" xml:space="preserve">
<g>
	<polygon points="21.6,27.7 28.1,24 21.6,20.3 	"/>
	<path d="M25,0.1C11.6,0.1,0.6,11,0.6,24.5C0.6,38,11.6,48.9,25,48.9c13.5,0,24.4-10.9,24.4-24.4C49.4,11,38.5,0.1,25,0.1z
		 M37.3,24.1c0,0,0,4.1-0.5,6c-0.3,1.1-1.1,1.9-2.2,2.2c-1.9,0.5-9.7,0.5-9.7,0.5s-7.7,0-9.7-0.5c-1.1-0.3-1.9-1.1-2.2-2.2
		c-0.5-2-0.5-6-0.5-6s0-4.1,0.6-6c0.3-1.1,1.1-1.9,2.2-2.2c1.9-0.5,9.7-0.5,9.7-0.5s7.7,0,9.7,0.5c1.1,0.3,1.9,1.1,2.2,2.2
		C37.3,20,37.3,24.1,37.3,24.1z"/>
</g>
</svg>
